<?xml version="1.0" encoding="utf-8"?>
<svg version="1.1" id="Layer_1" xmlns="http://www.w3.org/2000/svg" xmlns:xlink="http://www.w3.org/1999/xlink" x="0px" y="0px"
	 viewBox="0 0 378 100" style="enable-background:new 0 0 378 100;" xml:space="preserve">
<style type="text/css">
	.st0{fill:#FF671F;}
	.st1{fill:#F26727;}
	.st2{fill:#FFFFFF;}
</style>
<g>
	<g>
		<g>
			<path class="st0" d="M92.6,53.5c0.1-0.6,0.1-1.3,0.1-1.9l7.3,0.3c0-0.6,0-1.2,0-1.8c0-0.6,0-1.2,0-1.8l-7.3,0.3
				c0-0.6,0-1.3-0.1-1.9l-7.3,0.6c-0.2-1.9-0.5-3.8-0.9-5.7l7.1-1.8c-0.5-2.1-1.2-4.1-2-6.1l6.7-2.8c-0.7-1.6-1.5-3.3-2.3-4.8
				l-6.4,3.5c0.4,0.8,0.8,1.6,1.2,2.4L82.1,35c-1.1-2.4-2.1-4.3-3.7-6.4l5.7-4.4c0.5,0.6,0.5,0.8,1,1.5l6-4.2
				c-1.4-1.9-2.9-3.8-4.5-5.6l-5.4,5c0.5,0.6,0.5,0.6,1,1.2l-5.5,4.6c-1.2-1.5-2.1-2.3-3.5-3.6l4.7-5.5c0.4,0.3,0.8,0.7,1.2,1l5-5.4
				c-2.2-2-4.6-3.9-7.1-5.5L73,14c-2.2-1.4-3.6-2.3-6-3.3l-2.8,6.8c-0.4-0.1-1.6-0.6-2-0.8l2.5-6.8c-1-0.4-1.9-0.7-2.9-0.9l2-7
				c-1.7-0.5-3.5-0.9-5.2-1.2l-1.3,7.2c-0.7-0.1-1.4-0.2-2-0.3l-0.9,7.2c-0.4,0-1.8-0.1-2.2-0.1L53,7.5c-0.9-0.1-0.8-0.1-1.6-0.2
				L51.6,0c-0.5,0-1.1,0-1.6,0C22.4,0,0,22.4,0,50c0,27.6,22.4,50,50,50c0.5,0,0.7,0,1.3,0L51,92.7c0.8,0,1.7-0.1,2.6-0.1l0.9,7.3
				c0.3,0,3.6-0.5,3.9-0.5l-1.5-7.2c-0.2,0-2,0.3-2.8,0.4l-0.7-7.3c-1.1,0.1-2.2,0.2-3.3,0.2v-7.3c-15.5,0-28.1-12.6-28.1-28.1
				c0-15.5,12.6-28.1,28.1-28.1c4.4,0,8.6,1,12.5,2.9l3.3-6.5c0.5,0.2,2,1.1,2.5,1.4l-3.4,6.4c4.8,3,8.6,7.4,10.8,12.5l6.7-2.9
				c0.2,0.5,0.9,2.5,1.1,3.1l-6.7,2.7c0.9,2.7,1.3,5.6,1.3,8.4c0,5.3-1.5,10.4-4.2,14.9l6.2,3.9c-0.9,1.4-1.8,2.7-2.9,4l5.6,4.7
				c-0.5,0.6-1,1.2-1.5,1.7l5.4,5c2-2.2,3.9-4.5,5.5-7l-6.1-4c1.2-1.9,2.3-3.9,3.2-5.9l-6.7-3.2c0.1-0.4,0.8-1.9,0.9-2.2l6.9,2.4
				c0.3-0.7,0.5-1.5,0.7-2.2l7,2.1c0.5-1.7,0.9-3.5,1.2-5.2l-7.2-1.3c0.2-0.9,0.3-0.9,0.4-1.9l-7.3-0.8c0-0.4,0.1-1.7,0.1-2.1
				L92.6,53.5z"/>
			<path class="st1" d="M77.8,82.3l-4.7-5.5c-1.4,1.2-2.3,1.9-3.9,2.9l-3.9-6.2c-0.4,0.2-3,1.8-3,1.8l3.5,6.4c0,0,2.6-1.4,2.7-1.4
				l3.8,6.2c1.5-0.9,3-2,4.4-3.2l4.6,5.7c0.9-0.7,1.8-1.5,2.7-2.3l-5-5.4C78.6,81.6,78.2,81.9,77.8,82.3z"/>
			<path class="st1" d="M62.2,91c1.9-0.6,3.7-1.3,5.5-2.1l3,6.6c1.6-0.7,3.2-1.6,4.8-2.5l-3.7-6.3c-0.2,0.1-2.1,1.2-2.3,1.3
				l-3.6-6.4c-1.8,0.9-3.7,1.7-5.7,2.2L62.2,91z"/>
		</g>
		<g>
			<path class="st2" d="M128.9,64.9h-10.2l18.5-29.7h11.6l18.5,29.7h-11l-2.8-4.5h-22L128.9,64.9z M142.7,42.7L136,53.4h13.3
				L142.7,42.7z"/>
			<path class="st2" d="M171,35.3h26c8,0,13.7,1.9,13.7,11.3c0,9.1-5.8,11.2-13.8,11.2c-2.8,0-14.4,0-16.1,0v7.1H171V35.3z
				 M196.2,51c3.6,0,4.6-1,4.6-4.1c0-3.1-1-4.2-4.7-4.2c-2.7,0-15.2,0-15.2,0V51C182.6,51,194.1,51,196.2,51z"/>
			<path class="st2" d="M215.6,35.3h26c8,0,13.7,1.9,13.7,11.3c0,9.1-5.8,11.2-13.8,11.2c-2.9,0-14.4,0-16,0v7.1h-9.8V35.3z
				 M240.8,51c3.6,0,4.6-1,4.6-4.1c0-3.1-1-4.2-4.7-4.2c-2.7,0-15.2,0-15.2,0V51C227.3,51,238.7,51,240.8,51z"/>
			<path class="st2" d="M274.8,42.8h-16.6v-7.4h43.1v7.4h-16.6v22.1h-9.9V42.8z"/>
			<path class="st2" d="M307,35.3h9.9v29.5H307V35.3z"/>
			<path class="st2" d="M322.5,50.1c0-13,7.5-15.6,24.3-15.6c16.8,0,24.4,2.6,24.4,15.6c0,13-7.6,15.5-24.4,15.5
				S322.5,63.1,322.5,50.1z M360.5,50.1c0-7.7-3.2-8.1-13.8-8.1c-10.5,0-13.5,0.4-13.5,8c0,7.7,3,8.3,13.6,8.3
				C357.5,58.3,360.5,57.8,360.5,50.1z"/>
		</g>
	</g>
</g>
<g>
	<g>
		<path class="st2" d="M378,35.3c0,1.6-1.2,2.8-2.8,2.8c-1.6,0-2.8-1.2-2.8-2.8c0-1.5,1.3-2.8,2.8-2.8C376.7,32.6,378,33.8,378,35.3
			z M373,35.3c0,1.2,0.9,2.2,2.1,2.2c1.2,0,2.1-1,2.1-2.2c0-1.2-0.9-2.2-2.1-2.2C373.9,33.1,373,34.1,373,35.3z M374.7,36.8h-0.6V34
			c0.3,0,0.6-0.1,1.1-0.1c0.5,0,0.8,0.1,1,0.2c0.2,0.1,0.3,0.3,0.3,0.6c0,0.3-0.2,0.5-0.6,0.6v0c0.3,0.1,0.4,0.3,0.5,0.7
			c0.1,0.4,0.1,0.6,0.2,0.7h-0.7c-0.1-0.1-0.1-0.4-0.2-0.7c0-0.3-0.2-0.4-0.6-0.4h-0.3V36.8z M374.7,35.2h0.3c0.4,0,0.6-0.1,0.6-0.4
			c0-0.3-0.2-0.4-0.6-0.4c-0.2,0-0.3,0-0.4,0V35.2z"/>
	</g>
</g>
</svg>
